<?xml version="1.0" encoding="UTF-8" standalone="no"?>
<!-- Created with Inkscape (http://www.inkscape.org/) -->

<svg
   xmlns:dc="http://purl.org/dc/elements/1.1/"
   xmlns:cc="http://creativecommons.org/ns#"
   xmlns:rdf="http://www.w3.org/1999/02/22-rdf-syntax-ns#"
   xmlns:svg="http://www.w3.org/2000/svg"
   xmlns="http://www.w3.org/2000/svg"
   xmlns:sodipodi="http://sodipodi.sourceforge.net/DTD/sodipodi-0.dtd"
   xmlns:inkscape="http://www.inkscape.org/namespaces/inkscape"
   width="482.63855"
   height="397.93887"
   id="svg2"
   version="1.1"
   inkscape:version="0.48.3.1 r9886"
   sodipodi:docname="favico.svg">
  <defs
     id="defs4" />
  <sodipodi:namedview
     id="base"
     pagecolor="#ffffff"
     bordercolor="#666666"
     borderopacity="1.0"
     inkscape:pageopacity="0.0"
     inkscape:pageshadow="2"
     inkscape:zoom="5.6"
     inkscape:cx="77.202584"
     inkscape:cy="120.56482"
     inkscape:document-units="px"
     inkscape:current-layer="layer1"
     showgrid="false"
     fit-margin-top="-80"
     fit-margin-left="0"
     fit-margin-right="0"
     fit-margin-bottom="0"
     inkscape:window-width="1366"
     inkscape:window-height="744"
     inkscape:window-x="0"
     inkscape:window-y="24"
     inkscape:window-maximized="1" />
  <metadata
     id="metadata7">
    <rdf:RDF>
      <cc:Work
         rdf:about="">
        <dc:format>image/svg+xml</dc:format>
        <dc:type
           rdf:resource="http://purl.org/dc/dcmitype/StillImage" />
        <dc:title></dc:title>
      </cc:Work>
    </rdf:RDF>
  </metadata>
  <g
     inkscape:label="Layer 1"
     inkscape:groupmode="layer"
     id="layer1"
     transform="translate(-93.692698,-134.21728)">
    <path
       style="fill:#0000ff;fill-opacity:0;fill-rule:evenodd;stroke:none"
       id="path3757"
       d="m 169.06252,432.30001 c 27.26045,-20.13738 51.25407,-44.1675 75.34932,-67.87872 49.41521,-50.7482 95.34265,-104.9533 137.58352,-161.8143 7.24471,-9.75219 14.18118,-19.72963 21.27176,-29.59445 14.38032,-20.69785 28.4652,-41.65027 40.86243,-63.61358 4.39424,-7.78495 8.20309,-15.122401 11.67583,-23.29809 1.08887,-2.563455 1.97306,-5.209106 2.95959,-7.813658 2.12371,-6.509816 3.69305,-13.306876 2.98226,-20.180105 -0.20138,-1.353881 -0.0928,-0.724775 -0.31471,-1.889188 0,0 3.75317,-2.000642 3.75317,-2.000642 l 0,0 c 0.21913,1.192058 0.11166,0.548674 0.31196,1.931867 0.66673,6.985831 -0.93167,13.873608 -3.1452,20.472417 -1.01673,2.628336 -1.93037,5.298915 -3.05019,7.885008 -3.58193,8.272005 -7.45034,15.586711 -11.96446,23.468421 -12.6278,22.04828 -26.90662,43.09481 -41.45571,63.90474 -7.14526,9.89132 -14.14184,19.89177 -21.43578,29.67396 -42.28466,56.70961 -88.07636,110.88837 -137.26703,161.72334 -23.73993,23.51949 -47.35691,47.38211 -74.19122,67.43851 0,0 -3.92554,1.58447 -3.92554,1.58447 z"
       inkscape:connector-curvature="0" />
    <path
       style="fill:#000000;fill-opacity:1;fill-rule:evenodd;stroke:none"
       id="path3761"
       d="m 175.97447,430.25277 c 3.25182,-0.8651 3.54561,-0.81457 7.22133,-2.65713 2.28346,-1.14464 8.91694,-4.9875 6.70031,-3.71827 -10.65456,6.10074 -21.00241,12.78431 -32.01455,18.21305 -4.10425,2.02331 7.58189,-5.13724 11.19255,-7.94825 4.0787,-3.1754 7.90384,-6.66372 11.85577,-9.99558 23.20866,-21.36344 42.78666,-46.35446 60.71861,-72.21895 3.91248,-5.64325 7.63242,-11.41758 11.44863,-17.12636 13.47615,-20.82164 25.7074,-42.44545 36.0924,-64.97505 5.65876,-12.27635 7.41571,-16.89684 12.4979,-29.24343 7.96753,-20.09042 14.99085,-40.56724 19.89844,-61.62664 1.09965,-5.12334 1.81119,-10.31358 2.91323,-15.43433 0.0971,-0.44305 0.17562,-0.88948 0.24472,-1.33751 0,0 47.69775,-22.62307 47.69775,-22.62307 l 0,0 c -0.20857,0.51838 -0.41919,1.03596 -0.61543,1.55921 -2.06357,5.47256 -4.05906,10.93512 -5.58668,16.59618 -6.97766,21.60536 -14.64812,42.98814 -23.42919,63.93242 -4.73218,11.05612 -7.95886,18.87256 -13.13393,29.80554 -10.84399,22.90927 -23.58417,44.85927 -37.30984,66.15305 -20.71706,31.50839 -42.24701,62.86174 -69.26796,89.3883 -4.60329,4.22898 -15.10602,14.35163 -20.81841,17.89984 -16.55349,10.28207 -33.5475,19.83873 -50.42275,29.58372 -2.59508,1.49858 -5.27281,2.85501 -7.97918,4.14175 -2.42407,1.15253 -6.4682,2.67479 -9.23065,3.73824 0,0 41.32693,-32.10673 41.32693,-32.10673 z"
       inkscape:connector-curvature="0" />
    <path
       style="fill:#000000;fill-opacity:1;fill-rule:evenodd;stroke:none"
       id="path3763"
       d="m 381.86108,138.83454 c -0.34882,6.87885 1.62651,13.68616 2.92554,20.39857 2.21052,12.00134 2.54968,24.24018 3.50306,36.38029 1.24088,13.28736 3.25884,26.52548 6.51281,39.47769 2.55389,10.16554 3.93641,13.89783 7.17061,23.96988 8.17331,23.47219 18.89703,45.93607 29.27676,68.48533 9.92597,22.84971 20.88995,45.1756 33.07271,66.90097 9.21865,15.11364 18.09859,30.40134 26.03418,46.22998 4.82622,10.61115 10.57107,20.72296 17.11973,30.3548 3.05511,3.7817 5.77126,7.74532 8.45213,11.7855 4.71038,6.75784 10.23925,12.92346 15.96341,18.83293 1.13569,1.15384 2.35242,2.21865 3.60295,3.24406 0,0 -44.65678,27.2616 -44.65678,27.2616 l 0,0 c -1.01311,-1.31295 -2.02607,-2.62602 -3.03429,-3.94273 -5.02936,-6.58257 -10.10225,-13.13546 -15.84869,-19.12398 -1.16394,-1.24751 -2.73025,-2.80728 -3.77718,-4.26044 -1.83789,-2.55103 -2.84497,-5.65737 -4.64446,-8.23544 -5.83136,-10.27182 -11.07475,-20.85082 -15.92614,-31.62018 -7.62485,-15.91901 -15.84815,-31.52308 -24.25293,-47.04332 -11.39768,-22.22758 -22.77092,-44.46767 -33.03833,-67.24941 -10.4759,-22.71764 -20.67526,-45.57778 -29.17359,-69.12553 -7.17363,-20.58593 -13.57173,-41.45959 -16.47325,-63.14183 -1.53005,-11.74146 -2.23318,-23.6053 -4.5466,-35.23177 -1.59509,-6.878 -3.38908,-13.70357 -4.84096,-20.61363 0,0 46.57931,-23.73334 46.57931,-23.73334 z"
       inkscape:connector-curvature="0" />
    <path
       style="fill:#000000;fill-opacity:1;fill-rule:evenodd;stroke:none"
       id="path3765"
       d="m 134.7557,491.49075 c 10.24506,-3.31934 20.68438,-5.84081 31.20968,-8.10255 30.55321,-6.8994 61.68858,-10.59885 92.82031,-13.66296 45.33573,-3.68789 90.82257,-4.9261 136.29233,-4.47607 33.50071,0.79023 66.72375,5.26415 99.91529,9.49641 20.71568,2.41164 41.47606,4.44741 62.27028,6.04747 5.8923,0.37471 11.80009,0.80407 17.70784,0.5984 0.99246,-0.0711 0.53959,-0.0252 1.35982,-0.12523 0,0 -42.58989,30.86641 -42.58989,30.86641 l 0,0 c -0.76084,-0.11854 -0.34178,-0.0558 -1.25766,-0.18471 -5.26362,-0.72448 -10.49823,-1.67064 -15.76214,-2.396 -19.7127,-3.03972 -39.47501,-5.69978 -59.24999,-8.30577 -32.20666,-4.57789 -64.42424,-9.58455 -96.9714,-10.96867 -6.89027,-0.17887 -13.77873,-0.45249 -20.67081,-0.53662 -38.45872,-0.46947 -76.9555,1.63725 -115.21882,5.3946 -7.11099,0.87263 -14.23655,1.6338 -21.33298,2.6179 -25.57991,3.54733 -50.94826,8.64739 -75.94519,15.11814 -11.38988,3.00355 -22.75134,6.21684 -33.639672,10.7654 0,0 41.063002,-32.14615 41.063002,-32.14615 z"
       inkscape:connector-curvature="0" />
    <path
       style="fill:#000000;fill-opacity:1;fill-rule:evenodd;stroke:none"
       id="path2996"
       d="m 218.28928,363.32105 c 0.50892,-6.7715 0.39138,-13.57293 0.43322,-20.35906 0.81011,-11.29161 -2.7068,-21.94335 -6.60713,-32.36176 -5.85333,-13.60142 -11.62911,-27.23521 -17.44619,-40.85198 -6.36819,-14.83608 -13.54839,-29.30363 -20.43297,-43.9041 -7.20065,-15.36171 -12.96669,-31.3345 -19.20046,-47.10141 -4.81865,-11.86011 -12.05933,-22.35462 -19.84694,-32.41111 -4.76698,-5.74951 -9.10301,-11.64912 -11.7385,-18.66879 -1.83162,-5.89297 -3.41592,-11.86666 -4.55529,-17.93318 -0.10747,-5.38372 -3.22392,-9.63033 -5.96577,-14.010997 -3.88673,-5.752605 -7.64914,-11.585605 -11.93141,-17.055437 -3.096633,-4.078808 -6.477221,-8.004216 -10.29115,-11.432486 -1.169436,-0.03601 -2.58132,-3.330245 -3.315042,-3.723279 -0.100463,-0.05382 0.03497,0.225241 0.05246,0.337861 -0.0269,0.06505 -0.0324,0.246352 -0.0807,0.195144 -0.683915,-0.725135 -1.159013,-1.62385 -1.791137,-2.394551 -1.244481,-1.517299 -2.492439,-3.02657 -3.71607,-4.56194 -1.427884,-1.994654 -3.439098,-3.385694 -5.388158,-4.817422 -2.243881,-1.247144 -3.844364,-3.433786 -6.122473,-4.600313 -2.042231,-0.930966 -1.631912,0.119998 -2.946618,-1.968089 -1.115239,-1.65145 -0.563085,-3.126744 0.11907,0.0014 -0.107435,0.194522 -0.322743,0.270243 -0.489787,0.40417 0,0 34.823377,-24.917151 34.823377,-24.917151 l 0,0 c 0.40383,0.219253 0.83127,0.399575 1.18336,0.703671 0.46062,0.473646 2.47966,3.061309 1.26363,2.208239 -0.19499,-0.3166 -0.43893,-0.607853 -0.58498,-0.9498 -0.01,-0.02269 2.51016,1.813363 2.42931,1.676442 1.97331,1.636794 3.86413,3.368927 6.01593,4.782142 2.30928,1.647997 4.45734,3.430646 5.91298,5.917099 1.62885,2.185916 3.45595,4.277412 5.64535,5.792753 0.97788,1.304107 1.64081,2.822792 2.93298,3.900795 3.51607,3.933729 6.96806,7.948768 10.10658,12.190345 4.19191,5.662675 7.92389,11.628682 12.01553,17.363211 3.1514,4.670039 6.99376,9.500106 7.32485,15.343339 0.54488,5.900428 1.59471,11.766477 3.68429,17.334367 2.56016,6.57695 6.30456,12.42993 10.56507,18.05205 7.52004,10.66847 14.59256,21.69965 19.26963,33.96412 6.09552,15.72198 11.8027,31.6264 19.09089,46.84923 6.94939,14.61397 14.17237,29.10476 20.63204,43.94399 5.97273,13.59527 11.88114,27.21976 17.81538,40.83162 4.20772,10.59993 8.73512,21.48157 8.40878,33.10053 0.0412,6.63862 -0.0863,13.29476 0.43322,19.91758 0,0 -37.70715,19.21275 -37.70715,19.21275 z"
       inkscape:connector-curvature="0"
       transform="translate(93.692698,134.21728)" />
    <path
       style="fill:#000000;fill-opacity:1;fill-rule:evenodd;stroke:none"
       id="path2998"
       d="m 58.318696,111.13318 c 4.119928,-4.9512 9.514302,-8.54832 14.879959,-12.001694 12.733875,-7.327851 25.441387,-14.701705 38.201625,-21.983552 0.82929,-0.47325 1.7264,-0.818973 2.56288,-1.279405 0.85238,-0.469185 3.34327,-1.99204 2.49968,-1.507238 C 105.44032,80.695775 72.342844,99.645867 83.425878,93.417872 132.21922,65.998964 107.91169,78.46276 124.13824,70.177578 c 0.78399,-0.444752 3.13302,-1.784157 2.35198,-1.334256 -11.20545,6.454582 -44.71771,25.995166 -33.625224,19.348328 11.857724,-7.105384 29.239264,-18.450909 44.431824,-25.092835 5.31331,-2.191591 10.21966,-5.142687 15.43731,-7.528572 2.79764,-1.667762 5.85887,-2.882025 8.70879,-4.432637 1.9241,-1.295304 0.95972,-0.719133 2.88217,-1.74674 2.44737,-1.243613 5.29484,-1.487929 7.83218,-2.561696 0.78779,-0.304625 4.04501,-1.83784 4.83947,-1.593657 0.37812,0.116218 0.65269,0.447112 0.97904,0.670668 2.43121,2.119104 2.27028,5.295656 2.29529,8.224481 -0.0458,3.85472 -0.0463,7.709624 -0.0924,11.564361 -0.10764,4.336381 -0.0467,8.673287 0.0121,13.009747 0.12691,2.711491 -0.006,5.421824 0.32017,8.119229 0.38076,2.750126 0.84074,5.490422 1.09797,8.255844 0.15702,2.106412 0.13699,4.21862 0.18399,6.328437 -0.0274,1.53134 0.0391,2.98343 0.39667,4.46976 -12.18335,7.42731 -24.20375,15.12876 -36.55006,22.28192 -0.35885,0.20792 -0.76343,-0.33725 -1.16788,-0.42903 -2.58528,-0.58667 -5.61441,-0.29758 -8.23617,-0.33694 -5.07252,5.2e-4 -10.14412,0.0484 -15.21648,-0.0132 -5.9759,-0.006 -11.99771,-0.31993 -17.89935,-1.29007 -4.906489,-0.70248 -9.553779,-2.3948 -14.200821,-4.03677 -3.053186,-0.92101 -6.038639,-1.92039 -9.054204,-2.94497 -3.799566,-1.40141 -7.815245,-2.0008 -11.683197,-3.12097 -2.213828,-0.6625 -4.456224,-1.26739 -6.769587,-1.38769 -0.801914,-0.0386 -1.596544,0.0827 -2.392414,0.16857 0,0 34.577695,-25.127901 34.577695,-25.127901 l 0,0 c 0.898356,0.09284 1.785317,0.230086 2.653449,0.489474 2.227116,0.589439 4.394309,1.385393 6.617579,1.990197 3.98831,0.927909 7.8844,2.157213 11.8253,3.262537 3.05747,0.882153 6.03502,2.01381 8.99038,3.193266 4.407,1.596017 8.95811,2.726107 13.59427,3.433797 5.83861,0.70684 11.70025,0.99483 17.58188,0.79185 5.05216,-0.0438 10.1029,0.0373 15.15501,0.0313 2.38823,-0.0514 4.86011,0.0105 7.22891,-0.36875 0.41088,-0.0658 0.85354,-0.0937 1.2094,-0.30939 0.242,-0.14666 0.7115,-0.85325 0.46882,-0.70771 -11.97484,7.18155 -23.82333,14.57171 -35.735,21.85757 0.2171,0.22136 0.35771,0.56441 0.65131,0.66408 0.0943,0.032 0.0569,-3.16432 0.1032,-3.27152 0.0423,-2.0356 0.025,-4.07357 -0.0211,-6.10889 -0.0896,-2.67562 -0.26895,-5.35177 -0.76121,-7.98822 -0.56882,-2.92667 -0.77106,-5.78953 -0.49207,-8.778415 0.0616,-4.349538 0.12878,-8.69935 0.042,-13.049163 -0.0237,-3.801515 0.0275,-7.603695 -0.0544,-11.404512 -0.0117,-0.531938 -0.5474,-6.317646 0.53836,-2.74791 0.009,0.189913 0.13746,0.41543 0.0264,0.569739 -0.25007,0.347473 -3.93425,1.348526 -4.43506,1.600756 -2.59454,0.69173 -5.08871,1.680297 -7.35712,3.114605 -3.69562,2.071109 -7.61795,3.755568 -11.38105,5.70309 -5.13623,2.531248 -10.18841,5.229481 -15.4313,7.544863 -2.1281,1.111785 -2.51756,1.294966 -4.54245,2.426724 -0.665103,0.371744 -2.644552,1.514994 -1.985187,1.13316 70.544637,-40.85201 17.453417,-9.944271 -6.497217,3.61346 -0.819112,0.445352 -3.263436,1.804551 -2.457337,1.336055 C 100.18084,91.242 133.40303,72.114103 122.31682,78.468922 109.53346,85.796579 96.814479,93.236057 84.041347,100.58152 c -0.862343,0.49591 -1.754114,0.9388 -2.629751,1.41084 -0.830383,0.44764 -3.303552,1.82284 -2.4883,1.3482 11.034899,-6.424518 22.098874,-12.798967 33.148304,-19.19845 -5.24379,2.910374 -10.46467,6.066265 -14.737528,10.322213 0,0 -39.015376,16.668857 -39.015376,16.668857 z"
       inkscape:connector-curvature="0"
       transform="translate(93.692698,134.21728)" />
    <path
       style="fill:#ffffff;fill-opacity:1;fill-rule:evenodd;stroke:none"
       d="m 249.49458,88.08708 c -8.91045,18.70135 -17.1494,38.66402 -27.78136,56.86708 -7.0688,13.10966 -15.43859,25.59222 -22.62043,38.57935 17.78518,43.76957 42.58196,84.83507 55.08929,130.53571 1.61147,5.26023 -0.33673,11.50629 1.51786,16.38393 32.8753,0.95156 66.30708,1.24067 98.79464,4.15179 0.33524,-5.99327 -5.84856,-11.98907 -7.75633,-17.87749 -34.08266,-67.32873 -71.05912,-134.18576 -90.84527,-207.39262 -2.76102,-6.6128 -1.42735,-16.081394 -6.0859,-21.337035 l -0.3125,0.08929 z"
       id="path3016"
       inkscape:connector-curvature="0"
       transform="translate(93.692698,134.21728)" />
    <path
       style="fill:#ffffff;fill-opacity:1;fill-rule:evenodd;stroke:none"
       d="m 171.28029,224.51565 c -22.03481,26.58719 -43.77976,55.25172 -74.0069,73.24705 -14.66266,6.41508 -12.841039,25.18728 -16.133096,38.26185 -4.085115,10.13927 0.532479,13.54635 10.377509,9.30693 41.420507,-7.3692 83.704657,-10.20402 125.610707,-13.85154 1.82937,-5.79805 -3.50742,-12.5666 -4.64286,-18.39286 -12.00185,-29.73786 -24.25455,-59.67667 -39.55357,-87.85714 -0.42261,-0.38467 -1.03806,-0.89207 -1.65179,-0.71429 z"
       id="path3020"
       inkscape:connector-curvature="0"
       transform="translate(93.692698,134.21728)" />
  </g>
</svg>
