<?xml version="1.0" encoding="UTF-8" standalone="no"?>
<!-- Created with Inkscape (http://www.inkscape.org/) -->

<svg
   xmlns:dc="http://purl.org/dc/elements/1.1/"
   xmlns:cc="http://creativecommons.org/ns#"
   xmlns:rdf="http://www.w3.org/1999/02/22-rdf-syntax-ns#"
   xmlns:svg="http://www.w3.org/2000/svg"
   xmlns="http://www.w3.org/2000/svg"
   xmlns:sodipodi="http://sodipodi.sourceforge.net/DTD/sodipodi-0.dtd"
   xmlns:inkscape="http://www.inkscape.org/namespaces/inkscape"
   width="482.63855"
   height="482.64001"
   id="svg2"
   version="1.1"
   inkscape:version="0.48.3.1 r9886"
   sodipodi:docname="favicon.svg"
   inkscape:export-filename="/home/mykola/Projects/metronome_chrome/icon_128.png"
   inkscape:export-xdpi="23.868721"
   inkscape:export-ydpi="23.868721">
  <defs
     id="defs4" />
  <sodipodi:namedview
     id="base"
     pagecolor="#ffffff"
     bordercolor="#666666"
     borderopacity="1.0"
     inkscape:pageopacity="0.0"
     inkscape:pageshadow="2"
     inkscape:zoom="0.7"
     inkscape:cx="266.84173"
     inkscape:cy="209.51037"
     inkscape:document-units="px"
     inkscape:current-layer="layer2"
     showgrid="false"
     fit-margin-top="-80"
     fit-margin-left="0"
     fit-margin-right="0"
     fit-margin-bottom="0"
     inkscape:window-width="1366"
     inkscape:window-height="744"
     inkscape:window-x="0"
     inkscape:window-y="24"
     inkscape:window-maximized="1" />
  <metadata
     id="metadata7">
    <rdf:RDF>
      <cc:Work
         rdf:about="">
        <dc:format>image/svg+xml</dc:format>
        <dc:type
           rdf:resource="http://purl.org/dc/dcmitype/StillImage" />
        <dc:title></dc:title>
      </cc:Work>
    </rdf:RDF>
  </metadata>
  <g
     inkscape:groupmode="layer"
     id="layer2"
     inkscape:label="background">
    <path
       sodipodi:type="arc"
       style="fill:#999999;fill-opacity:1;fill-rule:evenodd;stroke:none"
       id="path3766"
       sodipodi:cx="255"
       sodipodi:cy="237.64001"
       sodipodi:rx="176.42857"
       sodipodi:ry="183.57143"
       d="m 431.42857,237.64001 a 176.42857,183.57143 0 1 1 -352.857144,0 176.42857,183.57143 0 1 1 352.857144,0 z"
       transform="matrix(1.2793522,0,0,1.2101168,-83.377675,-42.789286)" />
  </g>
  <g
     inkscape:label="icon"
     inkscape:groupmode="layer"
     id="layer1"
     transform="translate(-93.692698,-49.516153)">
    <path
       style="fill:#0000ff;fill-opacity:0;fill-rule:evenodd;stroke:none"
       id="path3757"
       d="m 169.06252,432.30001 c 27.26045,-20.13738 51.25407,-44.1675 75.34932,-67.87872 49.41521,-50.7482 95.34265,-104.9533 137.58352,-161.8143 7.24471,-9.75219 14.18118,-19.72963 21.27176,-29.59445 14.38032,-20.69785 28.4652,-41.65027 40.86243,-63.61358 4.39424,-7.78495 8.20309,-15.122401 11.67583,-23.29809 1.08887,-2.563455 1.97306,-5.209106 2.95959,-7.813658 2.12371,-6.509816 3.69305,-13.306876 2.98226,-20.180105 -0.20138,-1.353881 -0.0928,-0.724775 -0.31471,-1.889188 0,0 3.75317,-2.000642 3.75317,-2.000642 l 0,0 c 0.21913,1.192058 0.11166,0.548674 0.31196,1.931867 0.66673,6.985831 -0.93167,13.873608 -3.1452,20.472417 -1.01673,2.628336 -1.93037,5.298915 -3.05019,7.885008 -3.58193,8.272005 -7.45034,15.586711 -11.96446,23.468421 -12.6278,22.04828 -26.90662,43.09481 -41.45571,63.90474 -7.14526,9.89132 -14.14184,19.89177 -21.43578,29.67396 -42.28466,56.70961 -88.07636,110.88837 -137.26703,161.72334 -23.73993,23.51949 -47.35691,47.38211 -74.19122,67.43851 0,0 -3.92554,1.58447 -3.92554,1.58447 z"
       inkscape:connector-curvature="0" />
    <path
       style="fill:#000000;fill-opacity:1;fill-rule:evenodd;stroke:none"
       id="path3761"
       d="m 223.93883,409.45842 c 3.03719,-1.44851 3.33526,-1.45289 6.60931,-3.94016 2.03394,-1.54516 7.84732,-6.54267 5.90199,-4.88735 -9.3505,7.95655 -18.29231,16.42958 -28.11792,23.79137 -3.66201,2.74376 6.50751,-6.44427 9.53946,-9.8715 3.42498,-3.87149 6.54318,-8.00393 9.81477,-12.00589 18.88278,-25.26814 33.52955,-53.4341 46.39769,-82.15583 2.80763,-6.26666 5.4019,-12.62674 8.10284,-18.9401 9.41602,-22.94528 17.46082,-46.45005 23.52425,-70.50552 3.30394,-13.10779 4.18097,-17.97263 6.90526,-31.0434 4.13591,-21.21322 7.27264,-42.63256 8.22258,-64.23535 0.13844,-5.2382 -0.11692,-10.47075 0.0244,-15.70684 0.0139,-0.45335 0.009,-0.90662 -0.005,-1.35971 0,0 42.72227,-31.011079 42.72227,-31.011079 l 0,0 c -0.10966,0.547901 -0.22147,1.095392 -0.31811,1.645812 -1.02167,5.758768 -1.97827,11.495187 -2.43846,17.340647 -2.88425,22.52023 -6.49043,44.94911 -11.26892,67.15127 -2.61764,11.73795 -4.35142,20.01455 -7.42704,31.71293 -6.44474,24.51309 -14.92978,48.4321 -24.50421,71.88737 -14.56753,34.78163 -29.96258,69.56041 -51.64283,100.60485 -3.74681,5.00359 -12.20824,16.88549 -17.17045,21.42395 -14.37961,13.15165 -29.32567,25.6713 -44.12034,38.35423 -2.27513,1.95037 -4.65765,3.77622 -7.08114,5.53885 -2.17069,1.57877 -5.86579,3.81897 -8.38548,5.37243 0,0 34.71563,-39.16098 34.71563,-39.16098 z"
       inkscape:connector-curvature="0" />
    <path
       style="fill:#000000;fill-opacity:1;fill-rule:evenodd;stroke:none"
       id="path3763"
       d="m 373.84208,70.566829 c -0.95893,6.820609 0.40345,13.776565 1.10065,20.577874 1.1349,12.150327 0.38477,24.370867 0.25519,36.547667 0.0548,13.34506 0.88797,26.71016 2.97767,39.90035 1.64013,10.35232 2.68539,14.19273 5.01144,24.51241 6.05441,24.10583 14.73877,47.43406 23.07291,70.81674 7.85546,23.64161 16.79139,46.85374 26.99465,69.57609 7.83864,15.87328 15.32444,31.88984 21.82153,48.36125 3.86385,10.99816 8.68707,21.58062 14.35359,31.75647 2.70685,4.03831 5.0599,8.22769 7.371,12.49019 4.091,7.14981 9.04989,13.7825 14.22608,20.17742 1.02861,1.25023 2.14588,2.41899 3.3003,3.5515 0,0 -46.90339,23.18395 -46.90339,23.18395 l 0,0 c -0.89237,-1.39781 -1.78461,-2.79573 -2.67179,-4.19686 -4.42429,-7.00359 -8.89458,-13.98149 -14.08593,-20.45713 -1.04843,-1.34604 -2.46989,-3.03887 -3.3835,-4.57934 -1.60384,-2.70431 -2.33079,-5.88788 -3.89398,-8.61569 -4.89517,-10.74954 -9.17739,-21.75276 -13.05224,-32.91075 -6.17955,-16.5338 -12.98318,-32.8071 -19.97503,-49.01303 -9.37666,-23.15277 -18.72786,-46.31583 -26.92945,-69.92009 -8.41495,-23.55896 -16.54181,-47.23526 -22.91322,-71.44523 -5.31526,-21.14213 -9.83249,-42.50191 -10.79508,-64.35623 -0.48025,-11.83099 -0.12598,-23.71037 -1.3967,-35.49646 -0.97736,-6.99257 -2.1575,-13.950586 -2.98937,-20.962358 0,0 48.50467,-19.498743 48.50467,-19.498743 z"
       inkscape:connector-curvature="0" />
    <path
       style="fill:#000000;fill-opacity:1;fill-rule:evenodd;stroke:none"
       id="path3765"
       d="m 198.65035,432.91932 c 6.93968,-3.31934 14.01095,-5.84081 21.14046,-8.10255 20.69579,-6.8994 41.78591,-10.59885 62.87358,-13.66296 30.709,-3.68789 61.52037,-4.9261 92.32016,-4.47607 22.69233,0.79023 45.19658,5.26415 67.67949,9.49641 14.03215,2.41164 28.09459,4.44741 42.17994,6.04747 3.99126,0.37471 7.99302,0.80407 11.99474,0.5984 0.67226,-0.0711 0.3655,-0.0252 0.9211,-0.12523 0,0 -28.84906,30.86641 -28.84906,30.86641 l 0,0 c -0.51537,-0.11854 -0.23151,-0.0558 -0.8519,-0.18471 -3.56541,-0.72448 -7.11117,-1.67064 -10.67678,-2.396 -13.35277,-3.03972 -26.73913,-5.69978 -40.13409,-8.30577 -21.81578,-4.57789 -43.63897,-9.58455 -65.6854,-10.96867 -4.66725,-0.17887 -9.33328,-0.45249 -14.00176,-0.53662 -26.05073,-0.46947 -52.12725,1.63725 -78.04562,5.3946 -4.81677,0.87263 -9.6434,1.6338 -14.45029,2.6179 -17.32703,3.54733 -34.51077,8.64739 -51.4429,15.11814 -7.71516,3.00355 -15.41105,6.21684 -22.78647,10.7654 0,0 27.8148,-32.14615 27.8148,-32.14615 z"
       inkscape:connector-curvature="0" />
    <path
       style="fill:#000000;fill-opacity:1;fill-rule:evenodd;stroke:none"
       id="path2996"
       d="m 320.55341,441.82404 c 0.50892,-5.30124 0.39138,-10.62592 0.43322,-15.93862 0.81011,-8.83993 -2.7068,-17.17892 -6.60713,-25.33524 -5.85333,-10.64823 -11.62911,-21.32179 -17.44619,-31.98203 -6.36819,-11.61481 -13.54839,-22.94111 -20.43297,-34.37147 -7.20065,-12.02631 -12.96669,-24.53102 -19.20046,-36.87456 -4.81865,-9.28499 -12.05933,-17.50089 -19.84694,-25.37388 -4.76698,-4.50115 -9.10301,-9.11981 -11.7385,-14.61534 -1.83162,-4.61347 -3.41592,-9.29013 -4.55529,-14.03946 -0.10747,-4.21478 -3.22392,-7.53935 -5.96577,-10.96887 -3.88673,-4.50357 -7.64914,-9.07009 -11.93141,-13.35229 -3.09663,-3.1932 -6.47722,-6.26631 -10.29115,-8.95022 -1.16944,-0.0282 -2.58132,-2.60716 -3.31504,-2.91487 -0.10047,-0.0421 0.035,0.17634 0.0525,0.26451 -0.0269,0.0509 -0.0324,0.19287 -0.0807,0.15277 -0.68392,-0.56769 -1.15902,-1.27127 -1.79114,-1.87463 -1.24448,-1.18786 -2.49244,-2.36943 -3.71607,-3.57143 -1.42788,-1.56158 -3.4391,-2.65059 -5.38816,-3.77145 -2.24388,-0.97636 -3.84436,-2.68823 -6.12247,-3.60148 -2.04223,-0.72882 -1.63191,0.094 -2.94662,-1.54077 -1.11524,-1.29288 -0.56308,-2.44785 0.11907,7.9e-4 -0.10743,0.15228 -0.32274,0.21157 -0.48979,0.31641 0,0 34.82338,-19.50703 34.82338,-19.50703 l 0,0 c 0.40383,0.17164 0.83127,0.31281 1.18336,0.55088 0.46062,0.37081 2.47966,2.39663 1.26363,1.72878 -0.19499,-0.24786 -0.43893,-0.47587 -0.58498,-0.74358 -0.01,-0.0178 2.51016,1.41964 2.42931,1.31245 1.97331,1.28141 3.86413,2.63745 6.01593,3.74383 2.30928,1.29017 4.45734,2.68576 5.91298,4.63235 1.62885,1.7113 3.45595,3.34868 5.64535,4.53501 0.97788,1.02095 1.64081,2.20989 2.93298,3.05383 3.51607,3.07962 6.96806,6.2229 10.10658,9.54353 4.19191,4.43317 7.92389,9.10382 12.01553,13.59324 3.1514,3.65607 6.99376,7.4374 7.32485,12.01194 0.54488,4.6193 1.59471,9.21168 3.68429,13.57065 2.56016,5.14893 6.30456,9.73109 10.56507,14.13251 7.52004,8.35209 14.59256,16.98814 19.26963,26.5897 6.09552,12.30836 11.8027,24.75954 19.09089,36.67713 6.94939,11.44093 14.17237,22.78542 20.63204,34.40269 5.97273,10.64341 11.88114,21.3097 17.81538,31.9661 4.20772,8.29843 8.73512,16.8174 8.40878,25.91361 0.0412,5.19721 -0.0863,10.40814 0.43322,15.59299 0,0 -37.70715,15.0412 -37.70715,15.0412 z"
       inkscape:connector-curvature="0" />
    <path
       style="fill:#000000;fill-opacity:1;fill-rule:evenodd;stroke:none"
       id="path2998"
       d="m 177.72568,246.88927 c 3.40721,-3.67198 7.86841,-6.33972 12.30585,-8.90085 10.53103,-5.43456 21.04025,-10.90325 31.59308,-16.3037 0.68583,-0.35097 1.42775,-0.60738 2.11953,-0.94884 0.70492,-0.34796 2.76491,-1.47737 2.06725,-1.11782 -9.11572,4.69786 -36.48762,18.75185 -27.32185,14.13297 40.35252,-20.33474 20.24998,-11.09119 33.66948,-17.23575 0.64836,-0.32984 2.59103,-1.32318 1.94511,-0.98953 -9.26701,4.78693 -36.98194,19.27886 -27.80836,14.34934 9.80644,-5.26958 24.18113,-13.68378 36.74551,-18.60964 4.39415,-1.62536 8.45175,-3.81399 12.76679,-5.58344 2.31367,-1.23686 4.84534,-2.1374 7.20225,-3.28738 1.59124,-0.96064 0.79369,-0.53334 2.38358,-1.29544 2.02399,-0.92231 4.37888,-1.10349 6.47728,-1.89984 0.65151,-0.22591 3.34526,-1.363 4.00228,-1.18191 0.31271,0.0862 0.53978,0.3316 0.80968,0.4974 2.01063,1.57159 1.87754,3.92743 1.89822,6.09953 -0.0379,2.85878 -0.0383,5.71771 -0.0764,8.5765 -0.089,3.21601 -0.0386,6.43239 0.01,9.64845 0.10496,2.01092 -0.005,4.02101 0.26479,6.02148 0.31489,2.03958 0.6953,4.07187 0.90803,6.12279 0.12985,1.5622 0.11329,3.12867 0.15216,4.69338 -0.0227,1.13569 0.0323,2.2126 0.32805,3.31492 -10.07574,5.50833 -20.01672,11.21996 -30.22722,16.52498 -0.29677,0.15421 -0.63137,-0.25012 -0.96585,-0.31818 -2.13805,-0.4351 -4.64317,-0.2207 -6.81138,-0.24989 -4.19502,3.9e-4 -8.38928,0.0359 -12.58417,-0.01 -4.94212,-0.004 -9.92221,-0.23727 -14.80292,-0.95676 -4.05771,-0.52098 -7.90106,-1.77606 -11.7442,-2.99379 -2.52501,-0.68305 -4.99401,-1.42423 -7.48791,-2.18409 -3.14227,-1.03933 -6.46327,-1.48385 -9.6621,-2.31461 -1.83086,-0.49133 -3.68534,-0.93993 -5.59851,-1.02916 -0.66319,-0.0287 -1.32036,0.0613 -1.97855,0.12502 0,0 28.59606,-18.63566 28.59606,-18.63566 l 0,0 c 0.74295,0.0688 1.47647,0.17065 2.19442,0.36301 1.84185,0.43715 3.63414,1.02747 5.4728,1.47599 3.29837,0.68818 6.52047,1.59987 9.77963,2.41962 2.52855,0.65422 4.99101,1.49349 7.43512,2.36822 3.64463,1.18365 7.40844,2.02177 11.24258,2.54661 4.82858,0.52422 9.67621,0.73781 14.54037,0.58726 4.17818,-0.0325 8.35519,0.0277 12.53333,0.0233 1.97508,-0.0381 4.01935,0.008 5.97837,-0.27348 0.3398,-0.0488 0.70588,-0.0694 1.00018,-0.22945 0.20014,-0.1088 0.58842,-0.6328 0.38772,-0.52485 -9.9033,5.32606 -19.7021,10.80684 -29.55316,16.21026 0.17955,0.16417 0.29583,0.41859 0.53864,0.4925 0.078,0.0237 0.0471,-2.34676 0.0854,-2.42626 0.035,-1.50967 0.0207,-3.02109 -0.0174,-4.53055 -0.0741,-1.98432 -0.22242,-3.96904 -0.62953,-5.92432 -0.47042,-2.1705 -0.63767,-4.2937 -0.40694,-6.51035 0.0509,-3.22575 0.1065,-6.45171 0.0347,-9.67768 -0.0196,-2.81932 0.0227,-5.63913 -0.045,-8.45795 -0.01,-0.3945 -0.4527,-4.68536 0.44523,-2.03794 0.007,0.14085 0.11368,0.30811 0.0218,0.42254 -0.20681,0.2577 -3.25366,1.00011 -3.66783,1.18718 -2.14571,0.51301 -4.20841,1.24616 -6.0844,2.30989 -3.05631,1.536 -6.30012,2.78524 -9.41223,4.22959 -4.24771,1.87725 -8.42591,3.87835 -12.76182,5.59551 -1.75996,0.82454 -2.08205,0.96039 -3.75665,1.79974 -0.55004,0.27569 -2.18707,1.12357 -1.64177,0.84039 58.34104,-30.29715 14.43413,-7.37499 -5.37325,2.67986 -0.67742,0.33028 -2.69889,1.33831 -2.03224,0.99085 9.13677,-4.76204 36.61181,-18.9479 27.44342,-14.23497 -10.57195,5.43443 -21.09066,10.95179 -31.65415,16.39942 -0.71317,0.36778 -1.45067,0.69624 -2.17483,1.04632 -0.68674,0.33198 -2.73207,1.35187 -2.05784,0.99987 9.12595,-4.76462 18.27596,-9.49213 27.41393,-14.23818 -4.33666,2.15843 -8.65437,4.49894 -12.18807,7.65528 0,0 -32.26605,12.36216 -32.26605,12.36216 z"
       inkscape:connector-curvature="0" />
  </g>
</svg>
